<svg xmlns="http://www.w3.org/2000/svg" width="512" height="512" viewBox="0 0 512 512">
  <rect width="512" height="512" rx="112" fill="#050E1F"/>
  <rect width="512" height="512" rx="112" fill="url(#bg)" opacity="0.4"/>
  <defs>
    <radialGradient id="bg" cx="50%" cy="30%" r="60%">
      <stop offset="0%" stop-color="#DFCA8F" stop-opacity="0.15"/>
      <stop offset="100%" stop-color="#050E1F" stop-opacity="0"/>
    </radialGradient>
  </defs>
  <!-- House outline -->
  <path d="M256 100L380 196V400C380 411 371 420 360 420H296V320H216V420H152C141 420 132 411 132 400V196Z"
    fill="none" stroke="#DFCA8F" stroke-width="10" stroke-linejoin="round"/>
  <!-- Chimney -->
  <rect x="320" y="120" width="28" height="76" rx="4" fill="none" stroke="#DFCA8F" stroke-width="8"/>
  <!-- Window with chart bars -->
  <rect x="290" y="240" width="70" height="80" rx="4" fill="rgba(45,125,210,0.15)" stroke="#2D7DD2" stroke-width="4"/>
  <rect x="300" y="290" width="12" height="20" rx="2" fill="#2D7DD2"/>
  <rect x="318" y="275" width="12" height="35" rx="2" fill="#2D7DD2"/>
  <rect x="336" y="260" width="12" height="50" rx="2" fill="#DFCA8F"/>
  <!-- Door -->
  <rect x="216" y="340" width="48" height="80" rx="4" fill="rgba(223,202,143,0.1)" stroke="#DFCA8F" stroke-width="4"/>
  <!-- HOME SD text -->
  <text x="256" y="470" text-anchor="middle" font-family="Georgia, serif" font-size="36" font-weight="700" fill="#DFCA8F" letter-spacing="2">HOME SD</text>
</svg>
